<?xml version="1.0" encoding="utf-8"?><svg xmlns="http://www.w3.org/2000/svg" xmlns:xlink="http://www.w3.org/1999/xlink"><symbol fill="none" viewBox="0 0 48 48" id="arrow-right" xmlns="http://www.w3.org/2000/svg"><path fill-rule="evenodd" clip-rule="evenodd" d="M12 24a1.5 1.5 0 0 1 1.5-1.5h17.379l-6.441-6.438a1.502 1.502 0 1 1 2.124-2.124l9 9a1.5 1.5 0 0 1 0 2.124l-9 9a1.502 1.502 0 1 1-2.124-2.124l6.441-6.438H13.5A1.5 1.5 0 0 1 12 24Z" fill="#4F4F4F"/></symbol><symbol fill="none" viewBox="0 0 32 38" id="bag-shop" xmlns="http://www.w3.org/2000/svg"><g clip-path="url(#ca)"><path d="M8 8.714c0-4.418 3.579-8 8-8 4.421 0 8 3.582 8 8v3.429h4.571A3.43 3.43 0 0 1 32 15.57v14.86a6.859 6.859 0 0 1-6.857 6.857H6.857A6.858 6.858 0 0 1 0 30.429V15.572a3.429 3.429 0 0 1 3.429-3.43H8V8.715Zm3.429 3.429h9.142V8.714A4.573 4.573 0 0 0 16 4.143a4.573 4.573 0 0 0-4.571 4.571v3.429ZM9.714 19a1.71 1.71 0 0 0 1.715-1.714 1.71 1.71 0 0 0-1.715-1.715A1.71 1.71 0 0 0 8 17.287 1.71 1.71 0 0 0 9.714 19Zm12.572-3.428a1.71 1.71 0 0 0-1.715 1.714c0 .95.765 1.714 1.715 1.714A1.71 1.71 0 0 0 24 17.286a1.71 1.71 0 0 0-1.714-1.715Z" fill="#fff"/></g><defs><clipPath id="ca"><path fill="#fff" transform="translate(0 .714)" d="M0 0h32v36.571H0z"/></clipPath></defs></symbol><symbol fill="none" viewBox="0 0 21 22" id="bag-shop-ellipse" xmlns="http://www.w3.org/2000/svg"><circle cx="10.5" cy="11.214" r="10.5" fill="url(#ba)"/><defs><linearGradient id="ba" x1="0" y1="11.214" x2="21" y2="11.214" gradientUnits="userSpaceOnUse"><stop stop-color="#2AF598"/><stop offset="1" stop-color="#009EFD"/></linearGradient></defs></symbol><symbol fill="none" viewBox="0 0 84 84" id="icon-box" xmlns="http://www.w3.org/2000/svg"><path d="M38.602 8.89a7 7 0 0 1 6.797 0L71.7 23.499a3.5 3.5 0 0 1 1.799 3.059V55.38a7 7 0 0 1-3.602 6.118l-24.5 13.616a7 7 0 0 1-6.797 0L14.1 61.498a7 7 0 0 1-3.601-6.114V26.558a3.5 3.5 0 0 1 1.799-3.059L38.605 8.89h-.003Z" stroke="url(#da)" stroke-width="4" stroke-linecap="round" stroke-linejoin="round"/><path d="m26.25 15.75 31.5 17.5V45.5M21 43.148 31.5 49" stroke="url(#db)" stroke-width="4" stroke-linecap="round" stroke-linejoin="round"/><path d="M10.5 24.5 42 42m0 0 31.5-17.5M42 42v35" stroke="url(#dc)" stroke-width="4" stroke-linejoin="round"/><defs><linearGradient id="da" x1="10.5" y1="42.002" x2="73.5" y2="42.002" gradientUnits="userSpaceOnUse"><stop stop-color="#2AF598"/><stop offset="1" stop-color="#009EFD"/></linearGradient><linearGradient id="db" x1="21" y1="32.375" x2="57.75" y2="32.375" gradientUnits="userSpaceOnUse"><stop stop-color="#2AF598"/><stop offset="1" stop-color="#009EFD"/></linearGradient><linearGradient id="dc" x1="10.5" y1="50.75" x2="73.5" y2="50.75" gradientUnits="userSpaceOnUse"><stop stop-color="#2AF598"/><stop offset="1" stop-color="#009EFD"/></linearGradient></defs></symbol><symbol fill="none" viewBox="0 0 68 68" id="icon-plant" xmlns="http://www.w3.org/2000/svg"><path d="M37.188 28.688C37.188 34 34 41.438 34 41.438m1.063-10.626s3.187-8.5-4.25-14.875c-7.438-6.374-19.125-4.25-19.125-4.25s0 8.5 6.374 14.876c6.375 6.375 17 4.25 17 4.25Zm4.25-6.375s-3.188-8.5 4.25-14.874C51 3.188 62.686 5.313 62.686 5.313s0 8.5-6.374 14.875c-6.376 6.375-17 4.25-17 4.25Zm-17 14.875h27.625s2.124 19.126-13.813 19.126c-15.938 0-13.813-19.126-13.813-19.126Z" stroke="url(#ea)" stroke-width="4" stroke-linecap="round" stroke-linejoin="round"/><defs><linearGradient id="ea" x1="11.688" y1="31.705" x2="62.688" y2="31.705" gradientUnits="userSpaceOnUse"><stop stop-color="#2AF598"/><stop offset="1" stop-color="#009EFD"/></linearGradient></defs></symbol><symbol fill="none" viewBox="0 0 84 83" id="icon-service" xmlns="http://www.w3.org/2000/svg"><path d="M69.783 28H73.5a7 7 0 0 1 7 7v14a7 7 0 0 1-7 7h-3.717A28.004 28.004 0 0 1 42 80.5v-7a21 21 0 0 0 21-21v-21a21 21 0 1 0-42 0V56H10.5a7 7 0 0 1-7-7V35a7 7 0 0 1 7-7h3.717a28.003 28.003 0 0 1 55.566 0ZM10.5 35v14H14V35h-3.5ZM70 35v14h3.5V35H70ZM27.16 55.248l3.71-5.936A20.902 20.902 0 0 0 42 52.5a20.902 20.902 0 0 0 11.13-3.188l3.71 5.936A27.87 27.87 0 0 1 42 59.5a27.87 27.87 0 0 1-14.84-4.252Z" fill="url(#fa)"/><defs><linearGradient id="fa" x1="3.5" y1="42.002" x2="80.5" y2="42.002" gradientUnits="userSpaceOnUse"><stop stop-color="#2AF598"/><stop offset="1" stop-color="#009EFD"/></linearGradient></defs></symbol><symbol fill="none" viewBox="0 0 68 68" id="icon-sun" xmlns="http://www.w3.org/2000/svg"><path d="M34 4.25v4.463" stroke="url(#ga)" stroke-width="4" stroke-linecap="round" stroke-linejoin="round"/><path fill-rule="evenodd" clip-rule="evenodd" d="m55.038 12.963-3.157 3.156 3.155-3.155.002-.002Z" fill="url(#gb)"/><path d="m55.038 12.963-3.157 3.156" stroke="url(#gc)" stroke-width="4" stroke-linecap="round" stroke-linejoin="round"/><path d="M63.75 34h-4.462" stroke="url(#gd)" stroke-width="4" stroke-linecap="round" stroke-linejoin="round"/><path fill-rule="evenodd" clip-rule="evenodd" d="M55.038 55.038 51.88 51.88l3.155 3.155.002.002Z" fill="url(#ge)"/><path d="M55.038 55.038 51.88 51.88" stroke="url(#gf)" stroke-width="4" stroke-linecap="round" stroke-linejoin="round"/><path d="M34 63.75v-4.462" stroke="url(#gg)" stroke-width="4" stroke-linecap="round" stroke-linejoin="round"/><path fill-rule="evenodd" clip-rule="evenodd" d="m12.963 55.038 3.156-3.157-3.155 3.155-.002.002Z" fill="url(#gh)"/><path d="m12.963 55.038 3.156-3.157" stroke="url(#gi)" stroke-width="4" stroke-linecap="round" stroke-linejoin="round"/><path d="M4.25 34h4.463" stroke="url(#gj)" stroke-width="4" stroke-linecap="round" stroke-linejoin="round"/><path fill-rule="evenodd" clip-rule="evenodd" d="m12.963 12.963 3.156 3.156-3.155-3.155-.002-.002Z" fill="url(#gk)"/><path d="m12.963 12.963 3.156 3.156" stroke="url(#gl)" stroke-width="4" stroke-linecap="round" stroke-linejoin="round"/><path d="M34 51c9.388 0 17-7.612 17-17s-7.612-17-17-17-17 7.612-17 17 7.612 17 17 17Z" stroke="url(#gm)" stroke-width="4" stroke-linejoin="round"/><defs><linearGradient id="ga" x1="34" y1="6.481" x2="35" y2="6.481" gradientUnits="userSpaceOnUse"><stop stop-color="#2AF598"/><stop offset="1" stop-color="#009EFD"/></linearGradient><linearGradient id="gb" x1="51.881" y1="14.541" x2="55.038" y2="14.541" gradientUnits="userSpaceOnUse"><stop stop-color="#2AF598"/><stop offset="1" stop-color="#009EFD"/></linearGradient><linearGradient id="gc" x1="51.881" y1="14.541" x2="55.038" y2="14.541" gradientUnits="userSpaceOnUse"><stop stop-color="#2AF598"/><stop offset="1" stop-color="#009EFD"/></linearGradient><linearGradient id="gd" x1="59.288" y1="34.5" x2="63.75" y2="34.5" gradientUnits="userSpaceOnUse"><stop stop-color="#2AF598"/><stop offset="1" stop-color="#009EFD"/></linearGradient><linearGradient id="ge" x1="51.881" y1="53.459" x2="55.038" y2="53.459" gradientUnits="userSpaceOnUse"><stop stop-color="#2AF598"/><stop offset="1" stop-color="#009EFD"/></linearGradient><linearGradient id="gf" x1="51.881" y1="53.459" x2="55.038" y2="53.459" gradientUnits="userSpaceOnUse"><stop stop-color="#2AF598"/><stop offset="1" stop-color="#009EFD"/></linearGradient><linearGradient id="gg" x1="34" y1="61.519" x2="35" y2="61.519" gradientUnits="userSpaceOnUse"><stop stop-color="#2AF598"/><stop offset="1" stop-color="#009EFD"/></linearGradient><linearGradient id="gh" x1="12.963" y1="53.459" x2="16.119" y2="53.459" gradientUnits="userSpaceOnUse"><stop stop-color="#2AF598"/><stop offset="1" stop-color="#009EFD"/></linearGradient><linearGradient id="gi" x1="12.963" y1="53.459" x2="16.119" y2="53.459" gradientUnits="userSpaceOnUse"><stop stop-color="#2AF598"/><stop offset="1" stop-color="#009EFD"/></linearGradient><linearGradient id="gj" x1="4.25" y1="34.5" x2="8.713" y2="34.5" gradientUnits="userSpaceOnUse"><stop stop-color="#2AF598"/><stop offset="1" stop-color="#009EFD"/></linearGradient><linearGradient id="gk" x1="12.963" y1="14.541" x2="16.119" y2="14.541" gradientUnits="userSpaceOnUse"><stop stop-color="#2AF598"/><stop offset="1" stop-color="#009EFD"/></linearGradient><linearGradient id="gl" x1="12.963" y1="14.541" x2="16.119" y2="14.541" gradientUnits="userSpaceOnUse"><stop stop-color="#2AF598"/><stop offset="1" stop-color="#009EFD"/></linearGradient><linearGradient id="gm" x1="17" y1="34" x2="51" y2="34" gradientUnits="userSpaceOnUse"><stop stop-color="#2AF598"/><stop offset="1" stop-color="#009EFD"/></linearGradient></defs></symbol><symbol fill="none" viewBox="0 0 68 68" id="icon-temperature" xmlns="http://www.w3.org/2000/svg"><path d="M28.333 25.5h11.334M28.333 38.25a11.333 11.333 0 1 0 11.334 0V14.167a5.667 5.667 0 1 0-11.334 0V38.25Z" stroke="url(#ha)" stroke-width="4" stroke-linecap="round" stroke-linejoin="round"/><defs><linearGradient id="ha" x1="22.667" y1="33.949" x2="45.333" y2="33.949" gradientUnits="userSpaceOnUse"><stop stop-color="#2AF598"/><stop offset="1" stop-color="#009EFD"/></linearGradient></defs></symbol><symbol fill="none" viewBox="0 0 84 84" id="icon-wallet" xmlns="http://www.w3.org/2000/svg"><path d="M41.758 7.203a5.249 5.249 0 0 1 7.424-.787L66.308 20.4a5.25 5.25 0 0 1 1.312 6.537A15.752 15.752 0 0 0 63 26.25h-1.575l1.565-1.785-9.02-7.366-7.44 9.156h-6.767l10.138-12.474-4.042-3.302-12.59 15.771h-6.72L41.76 7.203ZM55.126 52.5a2.625 2.625 0 0 0 0 5.25h5.25a2.625 2.625 0 0 0 0-5.25h-5.25ZM15.75 28.875a2.625 2.625 0 0 1 2.625-2.625h2.93L25.477 21h-7.103a7.875 7.875 0 0 0-7.875 7.875v31.5A13.125 13.125 0 0 0 23.625 73.5H63A10.5 10.5 0 0 0 73.5 63V42A10.5 10.5 0 0 0 63 31.5H18.375a2.625 2.625 0 0 1-2.625-2.625Zm0 31.5V36.304a7.898 7.898 0 0 0 2.625.446H63A5.25 5.25 0 0 1 68.25 42v21A5.25 5.25 0 0 1 63 68.25H23.625a7.875 7.875 0 0 1-7.875-7.875Z" fill="url(#ia)"/><defs><linearGradient id="ia" x1="10.5" y1="39.365" x2="73.5" y2="39.365" gradientUnits="userSpaceOnUse"><stop stop-color="#2AF598"/><stop offset="1" stop-color="#009EFD"/></linearGradient></defs></symbol><symbol fill="none" viewBox="0 0 68 68" id="icon-water" xmlns="http://www.w3.org/2000/svg"><path d="M34 62.333a22.667 22.667 0 0 1-22.667-22.666c0-9.923 7.679-17.859 14.43-25.132L34 5.667l8.236 8.868c6.752 7.276 14.43 15.212 14.43 25.132A22.666 22.666 0 0 1 34 62.333v0Z" stroke="url(#ja)" stroke-width="4" stroke-linecap="round" stroke-linejoin="round"/><defs><linearGradient id="ja" x1="11.333" y1="34" x2="56.667" y2="34" gradientUnits="userSpaceOnUse"><stop stop-color="#2AF598"/><stop offset="1" stop-color="#009EFD"/></linearGradient></defs></symbol><symbol fill="none" viewBox="0 0 50 50" id="icon-zoom" xmlns="http://www.w3.org/2000/svg"><circle cx="25" cy="25" r="25" fill="url(#ka)"/><path d="m34.795 33.918-4.737-4.737 4.737 4.737Zm-4.737-4.737a8.186 8.186 0 0 0-5.789-13.977 8.187 8.187 0 1 0 5.79 13.977v0Z" stroke="#fff" stroke-width="3" stroke-linecap="round" stroke-linejoin="round"/><defs><linearGradient id="ka" x1="0" y1="25" x2="50" y2="25" gradientUnits="userSpaceOnUse"><stop stop-color="#2AF598"/><stop offset="1" stop-color="#009EFD"/></linearGradient></defs></symbol><symbol fill="none" viewBox="0 0 175 46" id="logo" xmlns="http://www.w3.org/2000/svg"><path d="M3.833 17.25a19.167 19.167 0 0 0 38.334 0" stroke="url(#la)" stroke-width="2" stroke-linecap="round" stroke-linejoin="round"/><path d="M23 36.417A19.166 19.166 0 0 1 42.167 17.25m-38.334 0A19.167 19.167 0 0 1 23 36.417" stroke="url(#lb)" stroke-width="2" stroke-linecap="round" stroke-linejoin="round"/><path d="M23 7.667a18.593 18.593 0 0 1 5.73 14.375m-11.46 0A18.592 18.592 0 0 1 23 7.667" stroke="url(#lc)" stroke-width="2" stroke-linecap="round" stroke-linejoin="round"/><path d="M60.679 34.5h-8.25V11.227h8.318c2.341 0 4.356.466 6.046 1.398 1.689.924 2.988 2.254 3.897 3.989.917 1.735 1.375 3.81 1.375 6.227 0 2.424-.458 4.508-1.375 6.25-.909 1.742-2.216 3.08-3.92 4.011-1.697.932-3.727 1.398-6.091 1.398Zm-3.33-4.216h3.125c1.455 0 2.679-.258 3.67-.773 1-.522 1.75-1.33 2.25-2.42.508-1.099.762-2.515.762-4.25 0-1.72-.254-3.125-.761-4.216-.5-1.09-1.246-1.894-2.239-2.41-.992-.514-2.216-.772-3.67-.772h-3.137v14.841Zm23.248 4.546c-1.114 0-2.106-.194-2.978-.58a4.793 4.793 0 0 1-2.068-1.739c-.5-.772-.75-1.735-.75-2.886 0-.97.178-1.784.534-2.443.356-.66.841-1.19 1.455-1.591a7.056 7.056 0 0 1 2.09-.91 15.939 15.939 0 0 1 2.478-.431 62.59 62.59 0 0 0 2.454-.296c.622-.098 1.073-.242 1.353-.431.28-.19.42-.47.42-.841v-.068c0-.72-.227-1.277-.682-1.67-.447-.395-1.083-.592-1.909-.592-.87 0-1.564.194-2.08.58-.514.379-.855.856-1.022 1.432L75.415 22c.227-1.06.674-1.977 1.34-2.75.667-.78 1.527-1.379 2.58-1.796 1.06-.424 2.288-.636 3.682-.636.97 0 1.898.114 2.784.341a7.28 7.28 0 0 1 2.375 1.057 5.137 5.137 0 0 1 1.648 1.84c.401.743.602 1.633.602 2.671V34.5h-4.59v-2.42h-.137a4.925 4.925 0 0 1-1.125 1.443c-.47.409-1.034.73-1.693.966-.66.227-1.42.34-2.284.34Zm1.386-3.341c.712 0 1.34-.14 1.886-.42a3.342 3.342 0 0 0 1.284-1.16 2.986 2.986 0 0 0 .466-1.648V26.41a2.59 2.59 0 0 1-.625.273c-.257.076-.549.148-.875.216-.325.06-.651.117-.977.17l-.886.125a5.989 5.989 0 0 0-1.489.398c-.424.182-.754.428-.989.738-.234.304-.352.682-.352 1.137 0 .659.239 1.163.716 1.511.485.341 1.099.512 1.841.512Zm23.392-4.42V17.045h4.841V34.5h-4.648v-3.17h-.182a5.153 5.153 0 0 1-1.966 2.465c-.909.622-2.018.932-3.329.932-1.167 0-2.193-.265-3.08-.795-.886-.53-1.58-1.284-2.08-2.262-.492-.977-.742-2.147-.75-3.51V17.045h4.842v10.25c.007 1.03.284 1.844.83 2.443.545.598 1.276.897 2.192.897.584 0 1.129-.132 1.637-.397a3.128 3.128 0 0 0 1.227-1.205c.318-.53.474-1.185.466-1.966Zm13.554-2.66V34.5h-4.841V17.046h4.614v3.079h.204a4.873 4.873 0 0 1 1.943-2.41c.91-.598 2.012-.897 3.307-.897 1.212 0 2.269.265 3.171.796.901.53 1.602 1.287 2.102 2.272.5.978.75 2.144.75 3.5V34.5h-4.841V24.25c.008-1.068-.265-1.901-.818-2.5-.553-.606-1.315-.91-2.284-.91-.652 0-1.227.141-1.727.421-.493.28-.879.69-1.16 1.228-.272.53-.412 1.17-.42 1.92Zm19.452 5.068.011-5.806h.705l5.591-6.625h5.556l-7.511 8.772h-1.148l-3.204 3.66Zm-4.387 5.023V11.227h4.841V34.5h-4.841Zm10.909 0-5.136-7.602 3.227-3.42 7.58 11.022h-5.671Zm18.909-7.432V17.045h4.841V34.5h-4.647v-3.17h-.182a5.153 5.153 0 0 1-1.966 2.465c-.909.622-2.019.932-3.33.932-1.166 0-2.193-.265-3.079-.795-.886-.53-1.58-1.284-2.08-2.262-.492-.977-.742-2.147-.75-3.51V17.045h4.841v10.25c.008 1.03.284 1.844.83 2.443.545.598 1.276.897 2.193.897a3.48 3.48 0 0 0 1.636-.397 3.124 3.124 0 0 0 1.228-1.205c.318-.53.473-1.185.465-1.966Z" fill="#fff"/><defs><linearGradient id="la" x1="3.833" y1="26.833" x2="42.167" y2="26.833" gradientUnits="userSpaceOnUse"><stop stop-color="#2AF598"/><stop offset="1" stop-color="#009EFD"/></linearGradient><linearGradient id="lb" x1="3.833" y1="26.833" x2="42.167" y2="26.833" gradientUnits="userSpaceOnUse"><stop stop-color="#2AF598"/><stop offset="1" stop-color="#009EFD"/></linearGradient><linearGradient id="lc" x1="17.246" y1="14.854" x2="28.754" y2="14.854" gradientUnits="userSpaceOnUse"><stop stop-color="#2AF598"/><stop offset="1" stop-color="#009EFD"/></linearGradient></defs></symbol><symbol fill="none" viewBox="0 0 64 64" id="plus-btn" xmlns="http://www.w3.org/2000/svg"><path fill-rule="evenodd" clip-rule="evenodd" d="M32 2.667C15.8 2.667 2.667 15.8 2.667 32S15.8 61.333 32 61.333 61.333 48.2 61.333 32 48.2 2.667 32 2.667Zm2.667 40a2.667 2.667 0 0 1-5.334 0v-8h-8a2.667 2.667 0 0 1 0-5.334h8v-8a2.667 2.667 0 0 1 5.334 0v8h8a2.667 2.667 0 1 1 0 5.334h-8v8Z" fill="url(#ma)"/><defs><linearGradient id="ma" x1="2.667" y1="32" x2="61.333" y2="32" gradientUnits="userSpaceOnUse"><stop stop-color="#2AF598"/><stop offset="1" stop-color="#009EFD"/></linearGradient></defs></symbol><symbol fill="none" viewBox="0 0 54 54" id="transparent-round" xmlns="http://www.w3.org/2000/svg"><g filter="url(#na)"><circle cx="27" cy="27" r="27" fill="#fff" fill-opacity=".2"/><circle cx="27" cy="27" r="26.5" stroke="#fff"/></g><circle cx="27" cy="27" r="8" fill="#fff"/><defs><filter id="na" x="-4" y="-4" width="62" height="62" filterUnits="userSpaceOnUse" color-interpolation-filters="sRGB"><feFlood flood-opacity="0" result="BackgroundImageFix"/><feGaussianBlur in="BackgroundImageFix" stdDeviation="2"/><feComposite in2="SourceAlpha" operator="in" result="effect1_backgroundBlur_2_31"/><feBlend in="SourceGraphic" in2="effect1_backgroundBlur_2_31" result="shape"/></filter></defs></symbol><symbol fill="none" viewBox="0 0 205 116" id="transparent-union" xmlns="http://www.w3.org/2000/svg"><g filter="url(#oa)"><mask id="ob" fill="#fff"><path fill-rule="evenodd" clip-rule="evenodd" d="M24 0C10.745 0 0 10.745 0 24v55c0 13.255 10.745 24 24 24h65.712c.02.037.042.073.064.109l6.47 10.704c1.593 2.635 5.441 2.558 6.927-.139l5.88-10.674H181c13.255 0 24-10.745 24-24V24c0-13.255-10.745-24-24-24H24Z"/></mask><path fill-rule="evenodd" clip-rule="evenodd" d="M24 0C10.745 0 0 10.745 0 24v55c0 13.255 10.745 24 24 24h65.712c.02.037.042.073.064.109l6.47 10.704c1.593 2.635 5.441 2.558 6.927-.139l5.88-10.674H181c13.255 0 24-10.745 24-24V24c0-13.255-10.745-24-24-24H24Z" fill="#FFFDFD" fill-opacity=".2"/><path d="m89.712 103 .87-.492-.286-.508h-.584v1Zm.064.109.856-.517-.856.517Zm6.47 10.704.856-.517-.856.517Zm6.927-.139-.876-.483.876.483Zm5.88-10.674v-1h-.591l-.285.518.876.482ZM1 24C1 11.297 11.297 1 24 1v-2C10.193-1-1 10.193-1 24h2Zm0 55V24h-2v55h2Zm23 23C11.297 102 1 91.703 1 79h-2c0 13.807 11.193 25 25 25v-2Zm65.712 0H24v2h65.712v-2Zm.92.592a3.633 3.633 0 0 1-.05-.084l-1.74.984a6.3 6.3 0 0 0 .078.135l1.712-1.035Zm6.47 10.704-6.47-10.704-1.712 1.035 6.47 10.704 1.712-1.035Zm5.195-.105c-1.114 2.023-4 2.081-5.195.105l-1.712 1.035c1.992 3.294 6.802 3.197 8.659-.175l-1.752-.965Zm5.88-10.673-5.88 10.673 1.752.965 5.88-10.674-1.752-.964ZM181 102h-71.947v2H181v-2Zm23-23c0 12.703-10.297 23-23 23v2c13.807 0 25-11.193 25-25h-2Zm0-55v55h2V24h-2ZM181 1c12.703 0 23 10.297 23 23h2c0-13.807-11.193-25-25-25v2ZM24 1h157v-2H24v2Z" fill="#fff" mask="url(#ob)"/></g><defs><filter id="oa" x="-4" y="-4" width="213" height="123.744" filterUnits="userSpaceOnUse" color-interpolation-filters="sRGB"><feFlood flood-opacity="0" result="BackgroundImageFix"/><feGaussianBlur in="BackgroundImageFix" stdDeviation="2"/><feComposite in2="SourceAlpha" operator="in" result="effect1_backgroundBlur_4_36"/><feBlend in="SourceGraphic" in2="effect1_backgroundBlur_4_36" result="shape"/></filter></defs></symbol></svg>