<svg width="32" height="38" fill="none" xmlns="http://www.w3.org/2000/svg"><g clip-path="url(#clip0_5_19)"><path d="M8 8.714c0-4.418 3.579-8 8-8 4.421 0 8 3.582 8 8v3.429h4.571A3.43 3.43 0 0132 15.57v14.86a6.859 6.859 0 01-6.857 6.857H6.857A6.858 6.858 0 010 30.429V15.572a3.429 3.429 0 013.429-3.43H8V8.715zm3.429 3.429h9.142V8.714A4.573 4.573 0 0016 4.143a4.573 4.573 0 00-4.571 4.571v3.429zM9.714 19a1.71 1.71 0 001.715-1.714 1.71 1.71 0 00-1.715-1.715A1.71 1.71 0 008 17.287 1.71 1.71 0 009.714 19zm12.572-3.428a1.71 1.71 0 00-1.715 1.714c0 .95.765 1.714 1.715 1.714A1.71 1.71 0 0024 17.286a1.71 1.71 0 00-1.714-1.715z" fill="#fff"/></g><defs><clipPath id="clip0_5_19"><path fill="#fff" transform="translate(0 .714)" d="M0 0h32v36.571H0z"/></clipPath></defs></svg>