<svg width="84" height="83" fill="none" xmlns="http://www.w3.org/2000/svg"><path d="M69.783 28H73.5a7 7 0 017 7v14a7 7 0 01-7 7h-3.717A28.004 28.004 0 0142 80.5v-7a21 21 0 0021-21v-21a21 21 0 10-42 0V56H10.5a7 7 0 01-7-7V35a7 7 0 017-7h3.717a28.003 28.003 0 0155.566 0zM10.5 35v14H14V35h-3.5zM70 35v14h3.5V35H70zM27.16 55.248l3.71-5.936A20.902 20.902 0 0042 52.5a20.902 20.902 0 0011.13-3.188l3.71 5.936A27.87 27.87 0 0142 59.5a27.87 27.87 0 01-14.84-4.252z" fill="url(#paint0_linear_14_223)"/><defs><linearGradient id="paint0_linear_14_223" x1="3.5" y1="42.002" x2="80.5" y2="42.002" gradientUnits="userSpaceOnUse"><stop stop-color="#2AF598"/><stop offset="1" stop-color="#009EFD"/></linearGradient></defs></svg>