<svg width="68" height="68" fill="none" xmlns="http://www.w3.org/2000/svg"><path d="M34 4.25v4.463" stroke="url(#paint0_linear_23_102)" stroke-width="4" stroke-linecap="round" stroke-linejoin="round"/><path fill-rule="evenodd" clip-rule="evenodd" d="M55.038 12.963l-3.157 3.156 3.155-3.155.002-.002z" fill="url(#paint1_linear_23_102)"/><path d="M55.038 12.963l-3.157 3.156" stroke="url(#paint2_linear_23_102)" stroke-width="4" stroke-linecap="round" stroke-linejoin="round"/><path d="M63.75 34h-4.462" stroke="url(#paint3_linear_23_102)" stroke-width="4" stroke-linecap="round" stroke-linejoin="round"/><path fill-rule="evenodd" clip-rule="evenodd" d="M55.038 55.038L51.88 51.88l3.155 3.155.002.002z" fill="url(#paint4_linear_23_102)"/><path d="M55.038 55.038L51.88 51.88" stroke="url(#paint5_linear_23_102)" stroke-width="4" stroke-linecap="round" stroke-linejoin="round"/><path d="M34 63.75v-4.462" stroke="url(#paint6_linear_23_102)" stroke-width="4" stroke-linecap="round" stroke-linejoin="round"/><path fill-rule="evenodd" clip-rule="evenodd" d="M12.963 55.038l3.156-3.157-3.155 3.155-.002.002z" fill="url(#paint7_linear_23_102)"/><path d="M12.963 55.038l3.156-3.157" stroke="url(#paint8_linear_23_102)" stroke-width="4" stroke-linecap="round" stroke-linejoin="round"/><path d="M4.25 34h4.463" stroke="url(#paint9_linear_23_102)" stroke-width="4" stroke-linecap="round" stroke-linejoin="round"/><path fill-rule="evenodd" clip-rule="evenodd" d="M12.963 12.963l3.156 3.156-3.155-3.155-.002-.002z" fill="url(#paint10_linear_23_102)"/><path d="M12.963 12.963l3.156 3.156" stroke="url(#paint11_linear_23_102)" stroke-width="4" stroke-linecap="round" stroke-linejoin="round"/><path d="M34 51c9.388 0 17-7.612 17-17s-7.612-17-17-17-17 7.612-17 17 7.612 17 17 17z" stroke="url(#paint12_linear_23_102)" stroke-width="4" stroke-linejoin="round"/><defs><linearGradient id="paint0_linear_23_102" x1="34" y1="6.481" x2="35" y2="6.481" gradientUnits="userSpaceOnUse"><stop stop-color="#2AF598"/><stop offset="1" stop-color="#009EFD"/></linearGradient><linearGradient id="paint1_linear_23_102" x1="51.881" y1="14.541" x2="55.038" y2="14.541" gradientUnits="userSpaceOnUse"><stop stop-color="#2AF598"/><stop offset="1" stop-color="#009EFD"/></linearGradient><linearGradient id="paint2_linear_23_102" x1="51.881" y1="14.541" x2="55.038" y2="14.541" gradientUnits="userSpaceOnUse"><stop stop-color="#2AF598"/><stop offset="1" stop-color="#009EFD"/></linearGradient><linearGradient id="paint3_linear_23_102" x1="59.288" y1="34.5" x2="63.75" y2="34.5" gradientUnits="userSpaceOnUse"><stop stop-color="#2AF598"/><stop offset="1" stop-color="#009EFD"/></linearGradient><linearGradient id="paint4_linear_23_102" x1="51.881" y1="53.459" x2="55.038" y2="53.459" gradientUnits="userSpaceOnUse"><stop stop-color="#2AF598"/><stop offset="1" stop-color="#009EFD"/></linearGradient><linearGradient id="paint5_linear_23_102" x1="51.881" y1="53.459" x2="55.038" y2="53.459" gradientUnits="userSpaceOnUse"><stop stop-color="#2AF598"/><stop offset="1" stop-color="#009EFD"/></linearGradient><linearGradient id="paint6_linear_23_102" x1="34" y1="61.519" x2="35" y2="61.519" gradientUnits="userSpaceOnUse"><stop stop-color="#2AF598"/><stop offset="1" stop-color="#009EFD"/></linearGradient><linearGradient id="paint7_linear_23_102" x1="12.963" y1="53.459" x2="16.119" y2="53.459" gradientUnits="userSpaceOnUse"><stop stop-color="#2AF598"/><stop offset="1" stop-color="#009EFD"/></linearGradient><linearGradient id="paint8_linear_23_102" x1="12.963" y1="53.459" x2="16.119" y2="53.459" gradientUnits="userSpaceOnUse"><stop stop-color="#2AF598"/><stop offset="1" stop-color="#009EFD"/></linearGradient><linearGradient id="paint9_linear_23_102" x1="4.25" y1="34.5" x2="8.713" y2="34.5" gradientUnits="userSpaceOnUse"><stop stop-color="#2AF598"/><stop offset="1" stop-color="#009EFD"/></linearGradient><linearGradient id="paint10_linear_23_102" x1="12.963" y1="14.541" x2="16.119" y2="14.541" gradientUnits="userSpaceOnUse"><stop stop-color="#2AF598"/><stop offset="1" stop-color="#009EFD"/></linearGradient><linearGradient id="paint11_linear_23_102" x1="12.963" y1="14.541" x2="16.119" y2="14.541" gradientUnits="userSpaceOnUse"><stop stop-color="#2AF598"/><stop offset="1" stop-color="#009EFD"/></linearGradient><linearGradient id="paint12_linear_23_102" x1="17" y1="34" x2="51" y2="34" gradientUnits="userSpaceOnUse"><stop stop-color="#2AF598"/><stop offset="1" stop-color="#009EFD"/></linearGradient></defs></svg>