<svg width="84" height="84" fill="none" xmlns="http://www.w3.org/2000/svg"><path d="M38.602 8.89a7 7 0 016.797 0L71.7 23.499a3.5 3.5 0 011.799 3.059V55.38a7 7 0 01-3.602 6.118l-24.5 13.616a7 7 0 01-6.797 0L14.1 61.498a7 7 0 01-3.601-6.114V26.558a3.5 3.5 0 011.799-3.059L38.605 8.89h-.003z" stroke="url(#paint0_linear_14_207)" stroke-width="4" stroke-linecap="round" stroke-linejoin="round"/><path d="M26.25 15.75l31.5 17.5V45.5M21 43.148L31.5 49" stroke="url(#paint1_linear_14_207)" stroke-width="4" stroke-linecap="round" stroke-linejoin="round"/><path d="M10.5 24.5L42 42m0 0l31.5-17.5M42 42v35" stroke="url(#paint2_linear_14_207)" stroke-width="4" stroke-linejoin="round"/><defs><linearGradient id="paint0_linear_14_207" x1="10.5" y1="42.002" x2="73.5" y2="42.002" gradientUnits="userSpaceOnUse"><stop stop-color="#2AF598"/><stop offset="1" stop-color="#009EFD"/></linearGradient><linearGradient id="paint1_linear_14_207" x1="21" y1="32.375" x2="57.75" y2="32.375" gradientUnits="userSpaceOnUse"><stop stop-color="#2AF598"/><stop offset="1" stop-color="#009EFD"/></linearGradient><linearGradient id="paint2_linear_14_207" x1="10.5" y1="50.75" x2="73.5" y2="50.75" gradientUnits="userSpaceOnUse"><stop stop-color="#2AF598"/><stop offset="1" stop-color="#009EFD"/></linearGradient></defs></svg>