<svg width="175" height="46" fill="none" xmlns="http://www.w3.org/2000/svg"><path d="M3.833 17.25a19.167 19.167 0 0038.334 0" stroke="url(#paint0_linear_5_9)" stroke-width="2" stroke-linecap="round" stroke-linejoin="round"/><path d="M23 36.417A19.166 19.166 0 0142.167 17.25m-38.334 0A19.167 19.167 0 0123 36.417" stroke="url(#paint1_linear_5_9)" stroke-width="2" stroke-linecap="round" stroke-linejoin="round"/><path d="M23 7.667a18.593 18.593 0 015.73 14.375m-11.46 0A18.592 18.592 0 0123 7.667" stroke="url(#paint2_linear_5_9)" stroke-width="2" stroke-linecap="round" stroke-linejoin="round"/><path d="M60.679 34.5h-8.25V11.227h8.318c2.341 0 4.356.466 6.046 1.398 1.689.924 2.988 2.254 3.897 3.989.917 1.735 1.375 3.81 1.375 6.227 0 2.424-.458 4.508-1.375 6.25-.909 1.742-2.216 3.08-3.92 4.011-1.697.932-3.727 1.398-6.091 1.398zm-3.33-4.216h3.125c1.455 0 2.679-.258 3.67-.773 1-.522 1.75-1.33 2.25-2.42.508-1.099.762-2.515.762-4.25 0-1.72-.254-3.125-.761-4.216-.5-1.09-1.246-1.894-2.239-2.41-.992-.514-2.216-.772-3.67-.772h-3.137v14.841zm23.248 4.546c-1.114 0-2.106-.194-2.978-.58a4.793 4.793 0 01-2.068-1.739c-.5-.772-.75-1.735-.75-2.886 0-.97.178-1.784.534-2.443.356-.66.841-1.19 1.455-1.591a7.056 7.056 0 012.09-.91 15.939 15.939 0 012.478-.431 62.59 62.59 0 002.454-.296c.622-.098 1.073-.242 1.353-.431.28-.19.42-.47.42-.841v-.068c0-.72-.227-1.277-.682-1.67-.447-.395-1.083-.592-1.909-.592-.87 0-1.564.194-2.08.58-.514.379-.855.856-1.022 1.432L75.415 22c.227-1.06.674-1.977 1.34-2.75.667-.78 1.527-1.379 2.58-1.796 1.06-.424 2.288-.636 3.682-.636.97 0 1.898.114 2.784.341a7.28 7.28 0 012.375 1.057 5.137 5.137 0 011.648 1.84c.401.743.602 1.633.602 2.671V34.5h-4.59v-2.42h-.137a4.925 4.925 0 01-1.125 1.443c-.47.409-1.034.73-1.693.966-.66.227-1.42.34-2.284.34zm1.386-3.341c.712 0 1.34-.14 1.886-.42a3.342 3.342 0 001.284-1.16 2.986 2.986 0 00.466-1.648V26.41a2.59 2.59 0 01-.625.273c-.257.076-.549.148-.875.216-.325.06-.651.117-.977.17l-.886.125a5.989 5.989 0 00-1.489.398c-.424.182-.754.428-.989.738-.234.304-.352.682-.352 1.137 0 .659.239 1.163.716 1.511.485.341 1.099.512 1.841.512zm23.392-4.42V17.045h4.841V34.5h-4.648v-3.17h-.182a5.153 5.153 0 01-1.966 2.465c-.909.622-2.018.932-3.329.932-1.167 0-2.193-.265-3.08-.795-.886-.53-1.58-1.284-2.08-2.262-.492-.977-.742-2.147-.75-3.51V17.045h4.842v10.25c.007 1.03.284 1.844.83 2.443.545.598 1.276.897 2.192.897.584 0 1.129-.132 1.637-.397a3.128 3.128 0 001.227-1.205c.318-.53.474-1.185.466-1.966zm13.554-2.66V34.5h-4.841V17.046h4.614v3.079h.204a4.873 4.873 0 011.943-2.41c.91-.598 2.012-.897 3.307-.897 1.212 0 2.269.265 3.171.796.901.53 1.602 1.287 2.102 2.272.5.978.75 2.144.75 3.5V34.5h-4.841V24.25c.008-1.068-.265-1.901-.818-2.5-.553-.606-1.315-.91-2.284-.91-.652 0-1.227.141-1.727.421-.493.28-.879.69-1.16 1.228-.272.53-.412 1.17-.42 1.92zm19.452 5.068l.011-5.806h.705l5.591-6.625h5.556l-7.511 8.772h-1.148l-3.204 3.66zm-4.387 5.023V11.227h4.841V34.5h-4.841zm10.909 0l-5.136-7.602 3.227-3.42 7.58 11.022h-5.671zm18.909-7.432V17.045h4.841V34.5h-4.647v-3.17h-.182a5.153 5.153 0 01-1.966 2.465c-.909.622-2.019.932-3.33.932-1.166 0-2.193-.265-3.079-.795-.886-.53-1.58-1.284-2.08-2.262-.492-.977-.742-2.147-.75-3.51V17.045h4.841v10.25c.008 1.03.284 1.844.83 2.443.545.598 1.276.897 2.193.897a3.48 3.48 0 001.636-.397 3.124 3.124 0 001.228-1.205c.318-.53.473-1.185.465-1.966z" fill="#fff"/><defs><linearGradient id="paint0_linear_5_9" x1="3.833" y1="26.833" x2="42.167" y2="26.833" gradientUnits="userSpaceOnUse"><stop stop-color="#2AF598"/><stop offset="1" stop-color="#009EFD"/></linearGradient><linearGradient id="paint1_linear_5_9" x1="3.833" y1="26.833" x2="42.167" y2="26.833" gradientUnits="userSpaceOnUse"><stop stop-color="#2AF598"/><stop offset="1" stop-color="#009EFD"/></linearGradient><linearGradient id="paint2_linear_5_9" x1="17.246" y1="14.854" x2="28.754" y2="14.854" gradientUnits="userSpaceOnUse"><stop stop-color="#2AF598"/><stop offset="1" stop-color="#009EFD"/></linearGradient></defs></svg>