<svg width="205" height="116" fill="none" xmlns="http://www.w3.org/2000/svg"><g filter="url(#filter0_b_4_36)"><mask id="a" fill="#fff"><path fill-rule="evenodd" clip-rule="evenodd" d="M24 0C10.745 0 0 10.745 0 24v55c0 13.255 10.745 24 24 24h65.712c.02.037.042.073.064.109l6.47 10.704c1.593 2.635 5.441 2.558 6.927-.139l5.88-10.674H181c13.255 0 24-10.745 24-24V24c0-13.255-10.745-24-24-24H24z"/></mask><path fill-rule="evenodd" clip-rule="evenodd" d="M24 0C10.745 0 0 10.745 0 24v55c0 13.255 10.745 24 24 24h65.712c.02.037.042.073.064.109l6.47 10.704c1.593 2.635 5.441 2.558 6.927-.139l5.88-10.674H181c13.255 0 24-10.745 24-24V24c0-13.255-10.745-24-24-24H24z" fill="#FFFDFD" fill-opacity=".2"/><path d="M89.712 103l.87-.492-.286-.508h-.584v1zm.064.109l.856-.517-.856.517zm6.47 10.704l.856-.517-.856.517zm6.927-.139l-.876-.483.876.483zm5.88-10.674v-1h-.591l-.285.518.876.482zM1 24C1 11.297 11.297 1 24 1v-2C10.193-1-1 10.193-1 24h2zm0 55V24h-2v55h2zm23 23C11.297 102 1 91.703 1 79h-2c0 13.807 11.193 25 25 25v-2zm65.712 0H24v2h65.712v-2zm.92.592a3.633 3.633 0 01-.05-.084l-1.74.984a6.3 6.3 0 00.078.135l1.712-1.035zm6.47 10.704l-6.47-10.704-1.712 1.035 6.47 10.704 1.712-1.035zm5.195-.105c-1.114 2.023-4 2.081-5.195.105l-1.712 1.035c1.992 3.294 6.802 3.197 8.659-.175l-1.752-.965zm5.88-10.673l-5.88 10.673 1.752.965 5.88-10.674-1.752-.964zM181 102h-71.947v2H181v-2zm23-23c0 12.703-10.297 23-23 23v2c13.807 0 25-11.193 25-25h-2zm0-55v55h2V24h-2zM181 1c12.703 0 23 10.297 23 23h2c0-13.807-11.193-25-25-25v2zM24 1h157v-2H24v2z" fill="#fff" mask="url(#a)"/></g><defs><filter id="filter0_b_4_36" x="-4" y="-4" width="213" height="123.744" filterUnits="userSpaceOnUse" color-interpolation-filters="sRGB"><feFlood flood-opacity="0" result="BackgroundImageFix"/><feGaussianBlur in="BackgroundImageFix" stdDeviation="2"/><feComposite in2="SourceAlpha" operator="in" result="effect1_backgroundBlur_4_36"/><feBlend in="SourceGraphic" in2="effect1_backgroundBlur_4_36" result="shape"/></filter></defs></svg>